<?xml version="1.0" standalone="no"?>
<!DOCTYPE svg PUBLIC "-//W3C//DTD SVG 20010904//EN"
 "http://www.w3.org/TR/2001/REC-SVG-20010904/DTD/svg10.dtd">
<svg version="1.0" xmlns="http://www.w3.org/2000/svg"
 width="250.000000pt" height="250.000000pt" viewBox="0 0 250.000000 250.000000"
 preserveAspectRatio="xMidYMid meet">

<g transform="translate(0.000000,250.000000) scale(0.100000,-0.100000)"
fill="#000000" stroke="none">
<path d="M1165 2243 c-73 -9 -181 -35 -200 -47 -11 -7 -37 -16 -57 -20 -21 -4
-43 -13 -50 -20 -7 -7 -41 -27 -76 -46 -73 -38 -158 -117 -230 -210 -46 -61
-112 -168 -112 -183 0 -14 22 -6 56 19 27 21 37 24 48 14 12 -9 21 -7 45 11
31 23 40 39 21 39 -6 0 13 24 43 53 29 29 62 69 72 89 18 33 135 142 143 133
9 -9 -20 -44 -40 -47 -20 -3 -23 -8 -20 -38 1 -19 2 -47 2 -62 0 -16 5 -28 11
-28 8 0 10 -14 6 -41 -6 -46 -19 -65 -37 -54 -8 5 -7 14 5 31 17 26 14 29 -13
15 -9 -5 -26 -13 -37 -17 -18 -7 -19 -7 -2 -11 28 -7 15 -26 -31 -47 -23 -11
-44 -28 -48 -38 -3 -10 -9 -18 -14 -18 -4 0 -11 -11 -14 -25 -4 -14 -10 -25
-15 -25 -19 0 -93 -81 -87 -95 3 -9 -3 -19 -14 -25 -28 -15 -27 -54 0 -45 11
4 20 2 20 -4 0 -14 -45 -25 -66 -17 -9 3 -21 20 -27 36 -6 17 -15 30 -19 30
-5 0 -6 11 -2 24 6 26 -12 44 -28 28 -6 -6 -21 -52 -35 -104 -67 -252 -5 -545
166 -778 65 -88 124 -156 173 -199 205 -182 441 -262 685 -232 87 10 110 18
208 67 197 99 398 278 489 434 105 178 165 394 138 494 -8 33 -8 51 0 74 13
34 5 79 -39 221 -45 146 -137 297 -236 388 -215 196 -533 308 -782 276z m6
-62 c-10 -7 -10 -13 -2 -30 9 -16 9 -21 -1 -21 -9 0 -9 -3 2 -10 12 -7 11 -10
-5 -16 -11 -5 -34 -23 -51 -41 -24 -25 -40 -33 -65 -33 -22 0 -41 -7 -52 -20
-9 -11 -25 -20 -36 -20 -10 0 -24 -7 -31 -15 -18 -22 -30 -18 -30 9 0 14 11
38 25 54 16 19 21 32 14 34 -25 8 91 101 136 109 40 8 109 7 96 0z m-57 -157
c13 -5 14 -9 5 -20 -13 -16 -35 -18 -44 -4 -4 6 1 7 12 3 16 -6 16 -5 4 10
-14 18 -5 22 23 11z m134 -16 c-4 -19 -31 -27 -53 -15 -19 10 -19 10 0 18 31
12 55 10 53 -3z m367 1 c4 -5 18 -14 31 -19 32 -13 32 -34 -1 -26 -14 4 -25 4
-25 1 0 -14 22 -45 31 -45 6 0 7 6 3 13 -4 6 2 4 13 -6 21 -18 35 -14 26 9
-20 52 192 -40 284 -124 46 -41 87 -107 81 -129 -1 -5 6 -23 16 -42 33 -62
104 -332 77 -291 -9 13 -10 13 -14 0 -2 -8 -10 -31 -17 -50 -13 -37 -17 -62
-20 -120 -1 -34 -2 -33 -20 20 -11 30 -20 65 -20 77 0 14 -11 29 -30 40 -21
12 -28 22 -24 36 5 15 2 17 -20 11 -15 -3 -38 0 -57 10 -18 9 -34 14 -37 11
-9 -9 31 -46 45 -41 7 3 13 2 13 -1 0 -13 -43 -53 -57 -53 -7 0 -13 -4 -13
-10 0 -14 8 -13 41 7 15 9 32 14 36 10 13 -13 -23 -60 -66 -85 -40 -23 -41
-24 -41 -4 0 12 -20 59 -44 106 -24 47 -46 93 -49 103 -3 10 -5 1 -6 -19 0
-20 4 -40 9 -43 6 -3 10 -17 10 -29 0 -13 6 -29 14 -35 8 -7 18 -25 21 -41 3
-16 13 -34 21 -41 8 -6 14 -18 14 -27 0 -12 8 -13 41 -8 41 7 41 7 34 -21 -8
-33 -43 -93 -54 -93 -5 0 -20 -17 -35 -38 -19 -28 -26 -51 -26 -86 0 -38 -5
-52 -26 -71 -15 -14 -31 -25 -35 -25 -5 0 -9 -8 -9 -17 0 -13 -9 -18 -32 -19
-18 -1 -58 -10 -88 -21 l-55 -20 -17 48 c-15 42 -15 56 -4 98 12 45 11 52 -11
95 -13 25 -28 46 -34 46 -6 0 -9 20 -7 48 3 44 2 47 -22 47 -16 0 -26 7 -28
19 -4 17 -11 18 -77 12 -72 -6 -73 -6 -99 24 -28 34 -38 76 -32 135 2 22 4 46
5 53 1 7 17 22 37 34 23 13 33 26 30 35 -10 25 25 73 54 73 14 1 53 3 88 6 63
6 63 6 57 -19 -6 -21 -1 -27 40 -47 44 -21 47 -21 59 -4 12 16 17 16 46 4 38
-16 97 -15 117 2 7 6 13 24 13 40 0 28 -2 30 -30 25 -16 -4 -32 -2 -35 3 -4 7
-13 6 -26 0 -17 -10 -19 -7 -19 29 0 33 4 40 25 45 13 3 43 3 64 0 22 -4 48
-4 57 0 15 6 14 10 -10 35 -23 24 -26 32 -17 50 11 20 10 20 -14 9 -14 -6 -25
-17 -25 -25 0 -15 -2 -15 -24 -7 -9 3 -16 12 -16 20 0 8 -7 14 -15 14 -15 0
-38 -66 -29 -82 3 -5 -4 -12 -16 -15 -13 -3 -19 -11 -16 -19 3 -8 3 -21 -1
-29 -4 -12 -9 -10 -19 11 -8 14 -14 34 -14 43 -1 25 -49 76 -61 64 -7 -7 -1
-22 20 -46 17 -19 31 -40 31 -46 0 -17 -45 19 -65 52 -13 22 -21 26 -38 21
-12 -4 -23 -11 -25 -15 -2 -5 -11 -9 -19 -9 -12 0 -13 -3 -4 -13 8 -11 5 -16
-14 -25 -14 -6 -25 -18 -25 -27 0 -15 -5 -17 -50 -19 -25 -2 -25 0 -25 59 0
64 2 66 60 54 22 -4 25 18 10 55 -6 13 -5 17 3 12 11 -7 52 22 52 37 0 14 27
37 43 37 10 0 14 7 11 23 -5 22 -5 22 5 0 9 -19 13 -20 49 -11 26 6 42 17 45
29 3 10 12 19 21 19 10 0 13 6 10 15 -4 10 -13 13 -25 10 -20 -7 -28 18 -9 30
7 4 6 14 -2 28 -6 12 -11 23 -10 25 1 1 -1 1 -5 0 -5 -2 -8 -8 -8 -13 0 -6 -8
-21 -18 -35 -9 -13 -13 -26 -9 -30 13 -10 12 -37 -2 -49 -12 -10 -16 -8 -21 9
-5 17 -10 19 -21 9 -24 -20 -17 23 12 75 14 25 22 46 18 46 -4 0 0 6 10 13 22
16 73 20 81 6z m-217 -135 c-3 -3 1 -26 8 -51 17 -56 17 -63 3 -63 -21 0 -37
26 -27 43 5 11 5 24 -2 37 -12 22 -6 40 12 40 6 0 9 -2 6 -6z m-48 -64 c-6
-11 -12 -20 -14 -20 -3 0 -1 23 3 38 1 1 6 2 11 2 7 0 7 -6 0 -20z m30 -50 c0
-5 -5 -10 -11 -10 -5 0 -7 5 -4 10 3 6 8 10 11 10 2 0 4 -4 4 -10z m107 -182
c-3 -8 -6 -5 -6 6 -1 11 2 17 5 13 3 -3 4 -12 1 -19z m81 -20 c-2 -5 -8 -9
-13 -9 -5 0 -11 4 -13 9 -1 5 4 9 13 9 9 0 14 -4 13 -9z m-985 -62 c3 -8 -1
-17 -9 -20 -28 -11 -34 -6 -22 14 15 24 24 25 31 6z m148 -389 c-10 -9 -11 -8
-5 6 3 10 9 15 12 12 3 -3 0 -11 -7 -18z m1134 -244 c-9 -41 -39 -96 -55 -101
-21 -7 -3 70 21 87 10 7 19 20 19 27 0 8 5 14 11 14 7 0 9 -10 4 -27z"/>
<path d="M1857 1684 c-8 -9 3 -66 17 -83 8 -11 8 -15 -2 -19 -10 -3 -10 -7 -1
-18 9 -11 15 -12 25 -3 11 9 11 15 3 25 -16 20 -22 87 -7 82 7 -2 17 -14 23
-26 13 -30 33 -28 28 2 -6 31 -66 59 -86 40z"/>
<path d="M1743 1043 c-14 -5 -18 -33 -5 -33 4 0 13 9 20 20 12 20 8 23 -15 13z"/>
<path d="M1710 971 c0 -6 5 -13 10 -16 6 -3 10 1 10 9 0 9 -4 16 -10 16 -5 0
-10 -4 -10 -9z"/>
<path d="M1740 920 c0 -19 3 -21 12 -12 9 9 9 15 0 24 -9 9 -12 7 -12 -12z"/>
<path d="M750 1940 c0 -5 11 -10 25 -10 14 0 25 5 25 10 0 6 -11 10 -25 10
-14 0 -25 -4 -25 -10z"/>
<path d="M649 1818 c-6 -21 -5 -38 1 -38 5 0 8 9 7 20 -1 17 -5 26 -8 18z"/>
</g>
</svg>
